<svg width="131" height="140" viewBox="0 0 131 140" fill="none" xmlns="http://www.w3.org/2000/svg">
<path fill-rule="evenodd" clip-rule="evenodd" d="M4 66.2871C4 31.8726 31.4775 4 65.3411 4C99.2046 4 126.682 31.8726 126.682 66.2871C126.682 100.702 99.2046 128.574 65.3411 128.574C57.0819 128.574 49.2025 126.916 42.0091 123.91L40.1004 125.268C47.8329 128.681 56.3684 130.574 65.3411 130.574C100.338 130.574 128.682 101.778 128.682 66.2871C128.682 30.7966 100.338 2 65.3411 2C30.3446 2 2 30.7966 2 66.2871C2 83.5599 8.71386 99.2471 19.6408 110.801L21.2867 109.63C10.5875 98.4198 4 83.1376 4 66.2871Z" fill="#219F50"/>
<path fill-rule="evenodd" clip-rule="evenodd" d="M0 66.2871C0 29.7206 29.2116 0 65.3411 0C101.47 0 130.682 29.7206 130.682 66.2871C130.682 102.854 101.47 132.574 65.3411 132.574C56.0844 132.574 47.2743 130.621 39.2927 127.097C38.6348 126.807 38.1834 126.186 38.1106 125.47C38.0378 124.755 38.3548 124.055 38.9408 123.638L40.5 123C41.0631 122.599 42.8623 122.014 43.5 122.28C50.454 125.187 57.3519 126.574 65.3411 126.574C98.0719 126.574 124.682 99.6253 124.682 66.2871C124.682 32.9488 98.0719 6 65.3411 6C32.6102 6 6 32.9488 6 66.2871C6 82.6071 12.378 97.3991 22.7335 108.249C23.1342 108.669 23.3328 109.242 23.2777 109.82C23.2226 110.397 22.9192 110.923 22.4463 111.259L20.8004 112.43C19.9877 113.009 18.8731 112.9 18.1878 112.175C6.92081 100.262 0 84.0872 0 66.2871Z" fill="#219F50"/>
<path fill-rule="evenodd" clip-rule="evenodd" d="M21.4804 109.202L14.956 135.033L42.555 124.093L43.2976 125.954L13.8781 137.616C13.5293 137.754 13.1316 137.684 12.8488 137.435C12.566 137.186 12.4459 136.8 12.538 136.436L19.5426 108.703L21.4804 109.202Z" fill="#219F50"/>
<path fill-rule="evenodd" clip-rule="evenodd" d="M18.6342 106.984C19.0917 106.712 19.6384 106.634 20.1536 106.766L22.1127 108C23.1791 108.274 23.3823 109.432 23.1127 110.5L17.9649 131.733L41.9307 122.233C42.956 121.827 44.1167 122.327 44.5254 123.351L45.2679 125.213C45.4647 125.706 45.4572 126.257 45.247 126.745C45.0368 127.233 44.6411 127.617 44.1473 127.813L14.7278 139.475C13.6765 139.892 12.4842 139.68 11.6399 138.936C10.7962 138.194 10.4354 137.04 10.7116 135.946L17.7162 108.213C17.8465 107.698 18.1768 107.255 18.6342 106.984Z" fill="#219F50"/>
<path fill-rule="evenodd" clip-rule="evenodd" d="M108.5 57.5C110.854 61.4115 111.389 65.8971 110.723 68.9599L105.5 70C106.009 67.662 105.465 62.4343 104 60C102.691 57.8255 100.718 55.5826 94.368 56.069C88.1895 56.5422 83.5704 59.5694 78.2723 63.0416C78.1635 63.1128 78.0545 63.1842 77.9452 63.2558C72.6151 66.7475 66.6343 70.57 58.3218 70.926C54.1728 71.1037 49.6224 70.9815 47 70.3051V65.9306C48.8394 66.405 53.9821 66.1073 58.1079 65.9306C64.9099 65.6393 69.8588 62.5758 75.2054 59.0733C75.4156 58.9356 75.6267 58.797 75.8386 58.6579C80.91 55.3281 86.5014 51.6568 93.9861 51.0836C101.739 50.4898 105.989 53.3286 108.5 57.5Z" fill="#219F50"/>
<path fill-rule="evenodd" clip-rule="evenodd" d="M20.8611 65.2752C20.8761 65.0654 20.8947 64.8539 20.9171 64.6415C21.0862 62.6885 21.5488 60.8611 22.4495 59.4409C22.6798 59.0476 22.9363 58.6856 23.2205 58.3621C23.9341 57.5499 24.8351 56.9621 25.9978 56.7301C26.1006 56.7031 26.2 56.6868 26.2965 56.6792C26.5283 56.6463 26.77 56.6269 27.0221 56.622C28.7396 56.5885 31.0266 57.226 34.0203 59.0219C37.7764 61.2751 41.033 64.1109 44.1306 67.1415C45.5866 68.566 47 70.0259 48.4151 71.4876L48.6872 71.7687C50.1897 73.3202 51.6966 74.8706 53.2401 76.3552C59.4235 82.3028 66.3057 87.3057 76.5329 87.6075L76.5329 87.6076L76.5452 87.6078C79.5344 87.6592 84.5434 87.3366 89.944 86.2105C94.6901 85.2209 99.8032 83.5975 104.124 81.0148C101.981 86.6508 98.6898 91.8293 94.4005 96.1837C86.3256 104.381 75.3737 108.986 63.954 108.986C52.5344 108.986 41.5825 104.381 33.5076 96.1837C27.516 90.1012 23.4726 82.4106 21.785 74.1113C21.1535 71.4124 20.7128 68.2027 20.8726 65.2752H20.8611ZM18.8564 65.2752C18.9238 64.2388 19.0699 63.1566 19.3175 62.0967C19.744 60.2713 20.4882 58.442 21.718 57.0421C22.9731 55.6134 24.7078 54.6667 26.9831 54.6224C29.2158 54.5788 31.8788 55.405 35.0491 57.3068C38.9981 59.6757 42.3828 62.6336 45.5292 65.7119C47.0054 67.1561 48.4366 68.6344 49.8475 70.0918L50.124 70.3774C51.6282 71.9308 53.112 73.4571 54.6265 74.9138C60.6737 80.7303 67.0988 85.3263 76.5857 85.6082C79.4298 85.6565 84.2871 85.347 89.5357 84.2526C94.7666 83.1619 100.304 81.3083 104.62 78.3187L105.238 77.6912C106.404 73.696 107.012 69.5174 107.012 65.2752H109.484C109.484 77.5338 104.687 89.2902 96.1486 97.9583C87.6101 106.626 76.0294 111.496 63.954 111.496C51.8787 111.496 40.298 106.626 31.7595 97.9583C23.221 89.2902 18.4241 77.5338 18.4241 65.2752H18.8564Z" fill="#219F50"/>
<path fill-rule="evenodd" clip-rule="evenodd" d="M26.9538 53.1226C29.5731 53.0716 32.518 54.0392 35.8207 56.0205C39.9143 58.4761 43.3952 61.5256 46.5782 64.6397C48.069 66.0982 49.5121 67.5888 50.9187 69.0417L50.9252 69.0484L51.2016 69.3339C52.7071 70.8886 54.1736 72.3969 55.6664 73.8327C61.6102 79.5498 67.6915 83.8404 76.6207 84.1086C79.3571 84.1542 84.0981 83.8542 89.2295 82.7842C94.315 81.7238 99.5823 79.9482 103.652 77.1643L103.902 76.9104C104.961 73.1602 105.512 69.2467 105.512 65.2752C105.512 64.4468 106.183 63.7752 107.012 63.7752H109.484C110.312 63.7752 110.984 64.4468 110.984 65.2752C110.984 77.9244 106.035 90.0599 97.2172 99.011C88.3992 107.963 76.4345 112.996 63.954 112.996C51.4736 112.996 39.5089 107.963 30.6909 99.011C21.8736 90.0599 17 78.6492 17 66C17 65.5426 17.1771 62.7752 17.5 62.5C17.5876 61.7166 17.3145 62.7937 17.5 62C17.9587 60.0366 19.1408 57.703 20.5911 56.0521C22.1044 54.3295 24.2282 53.1758 26.9538 53.1226ZM76.4731 89.1064C65.7018 88.7837 58.4818 83.4782 52.2002 77.4363C50.635 75.9308 49.1108 74.3624 47.6097 72.8121L47.3374 72.531C45.92 71.0669 44.5206 69.6216 43.0816 68.2137C40.0205 65.2189 36.8601 62.4746 33.2487 60.3082C30.3875 58.5918 28.3825 58.0957 27.0513 58.1217C26.8574 58.1255 26.6765 58.1403 26.5073 58.1643C26.4765 58.1686 26.4457 58.1721 26.4147 58.1745C26.4057 58.1752 26.3942 58.1768 26.3784 58.181C26.3496 58.1885 26.3206 58.1952 26.2914 58.201C25.491 58.3608 24.8715 58.7556 24.3474 59.3521C24.1337 59.5953 23.9319 59.8778 23.744 60.1987C23.735 60.2141 23.7258 60.2293 23.7163 60.2443C22.9931 61.3845 22.5695 62.9465 22.4115 64.7709L22.4089 64.7987C22.3946 64.9343 22.3819 65.0696 22.3709 65.2044C22.3733 65.255 22.3731 65.3059 22.3703 65.357C22.2207 68.0975 22.6344 71.1577 23.2456 73.7695C23.2489 73.7838 23.252 73.798 23.2549 73.8124C24.8855 81.8312 28.7917 89.2587 34.5762 95.1311C42.3716 103.045 52.9396 107.486 63.954 107.486C74.9685 107.486 85.5365 103.045 93.3319 95.1311C96.4885 91.9265 99.0858 88.2589 101.059 84.2846C97.5325 85.8607 93.772 86.9445 90.2502 87.6789C84.7386 88.8281 79.6182 89.1608 76.5196 89.1076L76.5073 89.1074C76.4959 89.1072 76.4845 89.1069 76.4731 89.1064ZM105.432 80.2805C105.546 79.9531 105.657 79.6244 105.765 79.2943L105.689 79.3714C105.623 79.4381 105.551 79.4985 105.474 79.5519C105.335 79.6483 105.195 79.7436 105.053 79.8377C105.065 79.8467 105.076 79.8559 105.087 79.8653C105.229 79.9842 105.345 80.1254 105.432 80.2805Z" fill="#219F50"/>
</svg>
