<svg xmlns="http://www.w3.org/2000/svg" version="1.1" xmlns:xlink="http://www.w3.org/1999/xlink" width="512" height="512"><svg width="512" height="512" viewBox="0 0 512 512" fill="none" xmlns="http://www.w3.org/2000/svg">
<path fill-rule="evenodd" clip-rule="evenodd" d="M67.3046 244.91C67.3046 139.046 151.83 53.3047 256 53.3047C360.17 53.3047 444.695 139.046 444.695 244.91C444.695 350.775 360.17 436.516 256 436.516C230.593 436.516 206.355 431.415 184.227 422.167L178.355 426.345C202.142 436.845 228.398 442.668 256 442.668C363.655 442.668 450.848 354.085 450.848 244.91C450.848 135.735 363.655 47.1523 256 47.1523C148.345 47.1523 61.1523 135.735 61.1523 244.91C61.1523 298.044 81.8053 346.301 115.418 381.842L120.482 378.239C87.569 343.756 67.3046 296.745 67.3046 244.91Z" fill="#219F50" stroke="#219F50" stroke-width="2" stroke-linejoin="round"></path>
<path fill-rule="evenodd" clip-rule="evenodd" d="M55 244.91C55 132.426 144.86 41 256 41C367.14 41 457 132.426 457 244.91C457 357.395 367.14 448.82 256 448.82C227.525 448.82 200.424 442.811 175.871 431.973C173.847 431.08 172.459 429.168 172.235 426.967C172.011 424.766 172.986 422.615 174.788 421.332L179.585 419.369C181.317 418.136 186.852 416.334 188.813 417.154C210.205 426.095 231.424 430.363 256 430.363C356.686 430.363 438.543 347.464 438.543 244.91C438.543 142.356 356.686 59.457 256 59.457C155.314 59.457 73.457 142.356 73.457 244.91C73.457 295.113 93.0769 340.616 124.932 373.991C126.165 375.283 126.776 377.046 126.606 378.824C126.436 380.601 125.503 382.217 124.049 383.252L118.985 386.855C116.486 388.634 113.057 388.299 110.949 386.069C76.2896 349.422 55 299.666 55 244.91Z" fill="#219F50" stroke="#219F50" stroke-width="2" stroke-linejoin="round"></path>
<path fill-rule="evenodd" clip-rule="evenodd" d="M121.077 376.923L101.007 456.383L185.906 422.729L188.191 428.455L97.6915 464.329C96.6183 464.754 95.395 464.54 94.5251 463.774C93.6552 463.008 93.2858 461.82 93.5689 460.699L115.116 375.389L121.077 376.923Z" fill="#219F50" stroke="#219F50" stroke-width="2" stroke-linejoin="round"></path>
<path fill-rule="evenodd" clip-rule="evenodd" d="M112.322 370.099C113.729 369.264 115.411 369.023 116.996 369.431L123.022 373.226C126.303 374.07 126.928 377.632 126.098 380.916L110.263 446.234L183.986 417.01C187.14 415.76 190.71 417.299 191.967 420.45L194.252 426.175C194.857 427.693 194.834 429.389 194.187 430.89C193.541 432.39 192.323 433.572 190.804 434.174L100.305 470.048C97.0712 471.33 93.4034 470.678 90.8064 468.392C88.2108 466.107 87.1009 462.557 87.9506 459.193L109.498 373.883C109.899 372.296 110.915 370.935 112.322 370.099Z" fill="#219F50" stroke="#219F50" stroke-width="2" stroke-linejoin="round"></path>
<path fill-rule="evenodd" clip-rule="evenodd" d="M388.764 217.88C396.006 229.912 397.652 243.71 395.602 253.132L379.536 256.332C381.101 249.14 379.429 233.058 374.921 225.57C370.895 218.881 364.826 211.981 345.292 213.478C326.286 214.933 312.077 224.245 295.779 234.926C295.444 235.146 295.109 235.365 294.773 235.586C278.376 246.327 259.978 258.085 234.408 259.18C221.645 259.727 207.647 259.351 199.58 257.27V243.814C205.238 245.273 221.058 244.357 233.75 243.814C254.674 242.917 269.897 233.494 286.344 222.72C286.991 222.296 287.64 221.87 288.292 221.442C303.893 211.199 321.093 199.905 344.117 198.142C367.966 196.315 381.041 205.048 388.764 217.88Z" fill="#219F50" stroke="#219F50" stroke-width="2" stroke-linejoin="round"></path>
<path fill-rule="evenodd" clip-rule="evenodd" d="M119.172 241.798C119.218 241.152 119.276 240.502 119.345 239.848C119.865 233.84 121.288 228.219 124.059 223.85C124.767 222.64 125.556 221.527 126.43 220.532C128.625 218.033 131.397 216.225 134.973 215.511C135.29 215.428 135.596 215.378 135.893 215.355C136.606 215.253 137.349 215.194 138.124 215.179C143.408 215.076 150.443 217.037 159.652 222.561C171.207 229.492 181.224 238.216 190.753 247.538C195.232 251.92 199.58 256.411 203.933 260.908L204.77 261.772C209.392 266.545 214.027 271.314 218.775 275.881C237.797 294.177 258.967 309.567 290.428 310.495L290.428 310.496L290.466 310.496C299.661 310.654 315.07 309.662 331.683 306.198C346.282 303.154 362.011 298.16 375.301 290.215C368.71 307.552 358.586 323.482 345.392 336.877C320.552 362.094 286.862 376.26 251.733 376.26C216.605 376.26 182.915 362.094 158.075 336.877C139.644 318.166 127.206 294.509 122.014 268.979C120.072 260.677 118.716 250.803 119.207 241.798H119.172ZM113.005 241.798C113.213 238.609 113.662 235.28 114.424 232.02C115.736 226.405 118.025 220.777 121.808 216.471C125.669 212.076 131.005 209.164 138.004 209.027C144.873 208.894 153.064 211.435 162.817 217.285C174.965 224.572 185.377 233.671 195.056 243.141C199.596 247.583 203.999 252.131 208.339 256.614L209.19 257.493C213.817 262.271 218.381 266.966 223.04 271.447C241.642 289.34 261.407 303.478 290.59 304.345C299.339 304.494 314.281 303.542 330.427 300.175C346.518 296.82 363.551 291.118 376.829 281.921L378.731 279.991C382.318 267.701 384.186 254.847 384.186 241.797H391.791C391.791 279.507 377.035 315.672 350.769 342.336C324.503 369.001 288.879 383.981 251.733 383.981C214.588 383.981 178.963 369.001 152.698 342.336C126.432 315.672 111.676 279.507 111.676 241.798H113.005Z" fill="#219F50" stroke="#219F50" stroke-width="2" stroke-linejoin="round"></path>
<path fill-rule="evenodd" clip-rule="evenodd" d="M137.914 204.414C145.972 204.257 155.031 207.234 165.191 213.328C177.783 220.882 188.491 230.263 198.283 239.842C202.868 244.329 207.307 248.914 211.634 253.384L211.654 253.404L212.505 254.283C217.136 259.065 221.647 263.705 226.239 268.122C244.523 285.708 263.23 298.907 290.698 299.732C299.116 299.872 313.7 298.949 329.485 295.658C345.129 292.396 361.332 286.934 373.851 278.37L374.62 277.589C377.877 266.053 379.572 254.014 379.572 241.797C379.572 239.249 381.638 237.183 384.186 237.183H391.791C394.34 237.183 396.405 239.249 396.405 241.797C396.405 280.708 381.18 318.039 354.056 345.574C326.931 373.112 290.125 388.595 251.733 388.595C213.341 388.595 176.536 373.112 149.41 345.574C122.287 318.039 107.295 282.938 107.295 244.027C107.295 242.62 107.84 234.107 108.833 233.26C109.103 230.85 108.262 234.164 108.833 231.722C110.244 225.682 113.88 218.504 118.342 213.426C122.997 208.127 129.53 204.578 137.914 204.414ZM290.244 315.106C257.11 314.113 234.9 297.793 215.577 279.207C210.762 274.576 206.073 269.751 201.455 264.982L200.618 264.117C196.258 259.614 191.953 255.168 187.526 250.837C178.11 241.624 168.388 233.182 157.278 226.518C148.477 221.238 142.309 219.712 138.214 219.792C137.618 219.804 137.061 219.849 136.541 219.923C136.446 219.936 136.351 219.947 136.256 219.954C136.228 219.957 136.193 219.962 136.144 219.974C136.056 219.998 135.967 220.018 135.877 220.036C133.415 220.527 131.509 221.742 129.897 223.577C129.24 224.325 128.619 225.194 128.041 226.181C128.013 226.229 127.985 226.275 127.955 226.321C125.731 229.829 124.428 234.634 123.942 240.246L123.933 240.332C123.89 240.749 123.851 241.165 123.817 241.58C123.824 241.735 123.824 241.892 123.815 242.049C123.355 250.479 124.627 259.893 126.507 267.927C126.518 267.971 126.527 268.015 126.536 268.059C131.552 292.726 143.568 315.575 161.362 333.639C185.342 357.983 217.851 371.646 251.733 371.646C285.616 371.646 318.125 357.983 342.105 333.639C351.815 323.781 359.805 312.499 365.875 300.274C355.026 305.122 343.458 308.456 332.625 310.715C315.67 314.25 299.919 315.274 290.387 315.11L290.349 315.109C290.314 315.108 290.279 315.107 290.244 315.106ZM379.325 287.956C379.678 286.949 380.02 285.938 380.35 284.922L380.117 285.16C379.914 285.365 379.693 285.551 379.456 285.715C379.028 286.011 378.596 286.304 378.161 286.594C378.196 286.622 378.231 286.65 378.266 286.679C378.702 287.045 379.058 287.479 379.325 287.956Z" fill="#219F50" stroke="#219F50" stroke-width="2" stroke-linejoin="round"></path>
</svg><style>@media (prefers-color-scheme: light) { :root { filter: none; } }
@media (prefers-color-scheme: dark) { :root { filter: none; } }
</style></svg>